<svg width="109" height="30" viewBox="0 0 109 30" fill="none" xmlns="http://www.w3.org/2000/svg">
<path d="M6.8 0.999998V22.84H16.8V29H0.4V0.999998H6.8ZM41.6972 25.36C38.8705 28.16 35.4305 29.56 31.3772 29.56C27.3239 29.56 23.8839 28.16 21.0572 25.36C18.2305 22.56 16.8172 19.1067 16.8172 15C16.8172 10.8933 18.2305 7.44 21.0572 4.64C23.8839 1.84 27.3239 0.439998 31.3772 0.439998C35.4305 0.439998 38.8705 1.84 41.6972 4.64C44.5239 7.44 45.9372 10.8933 45.9372 15C45.9372 19.1067 44.5239 22.56 41.6972 25.36ZM23.2172 15C23.2172 17.4533 23.9905 19.4533 25.5372 21C27.0839 22.5467 29.0305 23.32 31.3772 23.32C33.6972 23.32 35.6305 22.5467 37.1772 21C38.7505 19.4267 39.5372 17.4267 39.5372 15C39.5372 12.5733 38.7505 10.5733 37.1772 9C35.6305 7.45333 33.6972 6.68 31.3772 6.68C29.0305 6.68 27.0839 7.45333 25.5372 9C23.9905 10.5467 23.2172 12.5467 23.2172 15ZM63.2206 13.4H77.2606V15.8C77.2606 19.96 75.954 23.3067 73.3406 25.84C70.754 28.32 67.4606 29.56 63.4606 29.56C59.114 29.56 55.5006 28.16 52.6206 25.36C49.7673 22.56 48.3406 19.12 48.3406 15.04C48.3406 10.96 49.754 7.50667 52.5806 4.68C55.4073 1.85333 58.8873 0.439998 63.0206 0.439998C65.6073 0.439998 67.9806 1.02667 70.1406 2.2C72.3273 3.34667 74.034 4.89333 75.2606 6.84L69.8206 9.96C69.1806 8.97333 68.2473 8.18667 67.0206 7.6C65.8206 6.98667 64.474 6.68 62.9806 6.68C60.6073 6.68 58.634 7.46667 57.0606 9.04C55.514 10.5867 54.7406 12.6 54.7406 15.08C54.7406 17.48 55.5406 19.4667 57.1406 21.04C58.7406 22.56 60.874 23.32 63.5406 23.32C67.2206 23.32 69.6073 21.88 70.7006 19H63.2206V13.4ZM104.549 25.36C101.722 28.16 98.2821 29.56 94.2288 29.56C90.1754 29.56 86.7354 28.16 83.9088 25.36C81.0821 22.56 79.6688 19.1067 79.6688 15C79.6688 10.8933 81.0821 7.44 83.9088 4.64C86.7354 1.84 90.1754 0.439998 94.2288 0.439998C98.2821 0.439998 101.722 1.84 104.549 4.64C107.375 7.44 108.789 10.8933 108.789 15C108.789 19.1067 107.375 22.56 104.549 25.36ZM86.0688 15C86.0688 17.4533 86.8421 19.4533 88.3888 21C89.9354 22.5467 91.8821 23.32 94.2288 23.32C96.5488 23.32 98.4821 22.5467 100.029 21C101.602 19.4267 102.389 17.4267 102.389 15C102.389 12.5733 101.602 10.5733 100.029 9C98.4821 7.45333 96.5488 6.68 94.2288 6.68C91.8821 6.68 89.9354 7.45333 88.3888 9C86.8421 10.5467 86.0688 12.5467 86.0688 15Z" fill="white"/>
</svg>
